<svg width="36" height="36" viewBox="0 0 36 36" fill="none" xmlns="http://www.w3.org/2000/svg">
<path d="M14.374 35.554C13.727 35.488 13.074 35.434 12.434 35.354C11.8553 35.2787 11.2793 35.1847 10.706 35.072C10.224 34.977 9.74902 34.844 9.24702 34.722V34.377C9.24702 30.453 9.245 26.529 9.241 22.605C9.23196 22.5021 9.25389 22.3989 9.30396 22.3085C9.35403 22.2182 9.42996 22.1449 9.52201 22.098C10.7737 21.3021 12.2445 20.921 13.7253 21.009C15.206 21.097 16.6213 21.6495 17.77 22.588C18.4229 23.1494 19.2625 23.4456 20.123 23.418C21.223 23.389 22.323 23.396 23.428 23.418C23.8159 23.4227 24.1942 23.5392 24.5176 23.7534C24.841 23.9675 25.0958 24.2704 25.2515 24.6256C25.4073 24.9809 25.4573 25.3735 25.3957 25.7565C25.334 26.1395 25.1633 26.4965 24.904 26.785C24.699 27.0106 24.4465 27.1878 24.1645 27.3037C23.8826 27.4196 23.5784 27.4713 23.274 27.455C21.2954 27.4517 19.3163 27.4517 17.337 27.455C17.2019 27.4413 17.0654 27.4552 16.9358 27.4959C16.8063 27.5367 16.6864 27.6034 16.5834 27.692C16.4805 27.7806 16.3967 27.8893 16.3371 28.0114C16.2776 28.1334 16.2435 28.2663 16.237 28.402C16.2245 28.5399 16.2411 28.6788 16.286 28.8098C16.3308 28.9408 16.4027 29.0608 16.4971 29.1621C16.5915 29.2633 16.7062 29.3436 16.8337 29.3975C16.9612 29.4514 17.0986 29.4778 17.237 29.475C17.743 29.489 18.249 29.475 18.755 29.475C20.768 29.475 22.78 29.463 24.793 29.475C25.3272 29.4964 25.859 29.3919 26.3454 29.1699C26.8318 28.9479 27.2592 28.6146 27.593 28.197C29.012 26.512 30.473 24.861 31.915 23.197C32.1514 22.8784 32.4777 22.6377 32.8518 22.5058C33.226 22.374 33.6311 22.357 34.015 22.457C34.3922 22.5368 34.7366 22.7288 35.0028 23.0077C35.2691 23.2866 35.4448 23.6394 35.507 24.02C35.5193 24.0616 35.535 24.102 35.554 24.141V24.816C35.3755 25.3405 35.144 25.8455 34.863 26.323C33.323 28.438 31.737 30.523 30.163 32.611C29.3893 33.6995 28.3106 34.5346 27.063 35.011C26.405 35.25 25.705 35.373 25.025 35.549L14.374 35.554Z" fill="#62BF85"/>
<path d="M1.74904 35.553C1.49525 35.4358 1.28558 35.2405 1.15065 34.9956C1.01572 34.7508 0.962602 34.4692 0.999038 34.1921C1.01804 30.3371 1.00905 26.4821 1.00905 22.6271C1.00905 21.7491 1.37802 21.379 2.26002 21.383C3.00121 21.3584 3.74318 21.3715 4.48305 21.422C5.22752 21.4764 5.92333 21.8123 6.42897 22.3614C6.93461 22.9105 7.2121 23.6316 7.20503 24.378C7.23837 27.1114 7.23837 29.8424 7.20503 32.5711C7.2037 33.2875 6.94331 33.9792 6.47188 34.5186C6.00045 35.0581 5.3498 35.4088 4.64003 35.5061C4.59749 35.5178 4.55628 35.5339 4.51704 35.5541L1.74904 35.553Z" fill="#62BF85"/>
<path d="M18.757 3.90803C19.057 3.54403 19.357 3.15301 19.693 2.79401C20.3577 2.09711 21.1866 1.57801 22.1038 1.2842C23.021 0.990396 23.9972 0.931266 24.9432 1.11222C25.8891 1.29317 26.7746 1.70843 27.5186 2.32001C28.2626 2.93159 28.8414 3.71996 29.202 4.61301C29.7081 5.74434 29.906 6.98939 29.7757 8.2219C29.6454 9.45441 29.1915 10.6305 28.46 11.631C27.6885 12.7819 26.7667 13.8244 25.719 14.731C23.653 16.553 21.558 18.343 19.47 20.139C19.3759 20.2336 19.264 20.3086 19.1408 20.3599C19.0176 20.4111 18.8854 20.4374 18.752 20.4374C18.6186 20.4374 18.4864 20.4111 18.3632 20.3599C18.24 20.3086 18.1281 20.2336 18.034 20.139C15.809 18.208 13.571 16.292 11.377 14.327C10.0979 13.2184 9.05805 11.8608 8.32101 10.337C7.68784 8.97048 7.52368 7.43308 7.85406 5.96366C8.18443 4.49424 8.99085 3.17505 10.148 2.21102C11.2332 1.3598 12.5906 0.931718 13.9678 1.0064C15.345 1.08108 16.6482 1.65345 17.635 2.61703C18.035 3.02603 18.385 3.47903 18.757 3.90803Z" fill="#62BF85"/>
</svg>
