<svg width="40" height="40" viewBox="0 0 40 40" fill="none" xmlns="http://www.w3.org/2000/svg">
<g filter="url(#filter0_d_1_1406)">
<path d="M28 0H12C7.58172 0 4 3.58172 4 8V24C4 28.4183 7.58172 32 12 32H28C32.4183 32 36 28.4183 36 24V8C36 3.58172 32.4183 0 28 0Z" fill="#F4DEEB"/>
<path d="M29.427 15.095C29.4152 15.0809 29.4085 15.0633 29.408 15.045C29.356 13.8559 29.0469 12.6921 28.502 11.634C27.9197 10.4352 27.0881 9.37458 26.063 8.52298C24.78 7.44161 23.2336 6.71915 21.581 6.42899C21.265 6.37099 20.945 6.37698 20.629 6.33398H20.519C20.496 6.35998 20.464 6.35097 20.436 6.35297H20.368C20.332 6.35297 20.292 6.36598 20.26 6.33398H19.591C19.559 6.36598 19.519 6.34897 19.483 6.35297H19.415C19.386 6.35297 19.355 6.35998 19.332 6.33398H19.182C18.976 6.37398 18.766 6.35799 18.559 6.38599C17.7856 6.49063 17.0289 6.695 16.308 6.99399C14.8183 7.60548 13.507 8.58279 12.4953 9.83554C11.4836 11.0883 10.8042 12.576 10.52 14.161C10.4055 14.9317 10.3719 15.7123 10.42 16.49C10.4688 17.6239 10.7406 18.7371 11.22 19.766C11.8023 21.0569 12.6653 22.2017 13.746 23.117C14.5469 23.7914 15.4499 24.3345 16.421 24.726C17.8511 25.2846 19.3942 25.492 20.921 25.331C22.2523 25.2154 23.5401 24.8 24.688 24.116C25.8765 23.4306 26.9039 22.4979 27.7007 21.381C28.4974 20.264 29.0449 18.9889 29.306 17.642C29.375 17.29 29.381 16.933 29.43 16.579V16.436C29.403 16.41 29.414 16.377 29.411 16.347V16.252C29.411 16.215 29.398 16.171 29.43 16.138V15.507C29.398 15.475 29.416 15.434 29.411 15.396C29.406 15.358 29.398 15.317 29.43 15.285L29.427 15.095ZM19.815 21.411C19.6678 21.4156 19.5212 21.3896 19.3845 21.3348C19.2477 21.28 19.1238 21.1975 19.0205 21.0925C18.9172 20.9875 18.8367 20.8623 18.7841 20.7247C18.7315 20.5871 18.708 20.4401 18.715 20.293C18.7167 20.1475 18.7475 20.0039 18.8055 19.8705C18.8635 19.7372 18.9476 19.6167 19.0527 19.5162C19.1579 19.4157 19.282 19.3372 19.4179 19.2853C19.5538 19.2334 19.6986 19.2092 19.844 19.214C19.9894 19.2128 20.1335 19.2411 20.2676 19.2972C20.4017 19.3533 20.523 19.436 20.6243 19.5403C20.7255 19.6446 20.8045 19.7684 20.8565 19.9041C20.9085 20.0398 20.9326 20.1847 20.927 20.33C20.9299 20.475 20.903 20.6191 20.848 20.7534C20.7929 20.8876 20.711 21.0092 20.6071 21.1105C20.5033 21.2118 20.3798 21.2907 20.2442 21.3424C20.1086 21.3941 19.9639 21.4174 19.819 21.411H19.815ZM22.699 15.159C22.222 15.599 21.75 16.045 21.271 16.484C20.9672 16.7515 20.7642 17.115 20.696 17.514C20.676 17.622 20.644 17.73 20.617 17.838C20.6019 17.9456 20.5657 18.0492 20.5104 18.1427C20.4551 18.2362 20.3819 18.3179 20.2949 18.383C20.2078 18.4481 20.1088 18.4953 20.0034 18.5219C19.8981 18.5485 19.7885 18.5539 19.681 18.538C19.4583 18.5287 19.2479 18.4335 19.0939 18.2724C18.9399 18.1113 18.8543 17.8968 18.855 17.674C18.8256 17.2969 18.8778 16.918 19.0079 16.5629C19.138 16.2078 19.343 15.8848 19.609 15.616C20.043 15.167 20.522 14.764 20.98 14.339C21.1141 14.2117 21.236 14.072 21.344 13.922C21.4622 13.7491 21.5374 13.5505 21.5634 13.3427C21.5893 13.1348 21.5653 12.9238 21.4933 12.7271C21.4214 12.5305 21.3035 12.3538 21.1495 12.2119C20.9955 12.0699 20.8098 11.9668 20.608 11.911C20.1397 11.7531 19.6292 11.7774 19.178 11.979C18.8474 12.1524 18.5873 12.4351 18.442 12.779C18.3146 13.0459 18.2028 13.3201 18.107 13.6C18.0664 13.7374 17.9944 13.8635 17.8968 13.9685C17.7993 14.0734 17.6787 14.1543 17.5446 14.2048C17.4105 14.2553 17.2665 14.274 17.124 14.2594C16.9814 14.2449 16.8442 14.1975 16.723 14.121C16.569 14.0391 16.4421 13.9142 16.3578 13.7615C16.2735 13.6088 16.2353 13.4349 16.248 13.261C16.2752 12.862 16.3849 12.473 16.5701 12.1186C16.7553 11.7642 17.012 11.4521 17.324 11.202C18.0749 10.5625 19.0383 10.2279 20.024 10.264C20.8947 10.2394 21.7499 10.4972 22.462 10.999C22.7933 11.2268 23.0681 11.5273 23.2653 11.8777C23.4626 12.2281 23.577 12.619 23.5999 13.0204C23.6227 13.4218 23.5535 13.8231 23.3973 14.1936C23.2412 14.5641 23.0023 14.894 22.699 15.158V15.159Z" fill="#301843"/>
</g>
<defs>
<filter id="filter0_d_1_1406" x="0" y="0" width="40" height="40" filterUnits="userSpaceOnUse" color-interpolation-filters="sRGB">
<feFlood flood-opacity="0" result="BackgroundImageFix"/>
<feColorMatrix in="SourceAlpha" type="matrix" values="0 0 0 0 0 0 0 0 0 0 0 0 0 0 0 0 0 0 127 0" result="hardAlpha"/>
<feOffset dy="4"/>
<feGaussianBlur stdDeviation="2"/>
<feComposite in2="hardAlpha" operator="out"/>
<feColorMatrix type="matrix" values="0 0 0 0 0 0 0 0 0 0 0 0 0 0 0 0 0 0 0.25 0"/>
<feBlend mode="normal" in2="BackgroundImageFix" result="effect1_dropShadow_1_1406"/>
<feBlend mode="normal" in="SourceGraphic" in2="effect1_dropShadow_1_1406" result="shape"/>
</filter>
</defs>
</svg>
