<svg width="20" height="20" viewBox="0 0 20 20" fill="none" xmlns="http://www.w3.org/2000/svg">
<path fill-rule="evenodd" clip-rule="evenodd" d="M0 10C0 8.02219 0.58649 6.08879 1.6853 4.4443C2.78412 2.79981 4.3459 1.51809 6.17317 0.761209C8.00043 0.00433284 10.0111 -0.193701 11.9509 0.192152C13.8907 0.578004 15.6725 1.53041 17.0711 2.92894C18.4696 4.32746 19.422 6.10929 19.8079 8.0491C20.1937 9.98891 19.9957 11.9996 19.2388 13.8268C18.4819 15.6541 17.2002 17.2159 15.5557 18.3147C13.9112 19.4135 11.9778 20 10 20C7.34784 20 4.8043 18.9464 2.92893 17.0711C1.05357 15.1957 0 12.6522 0 10Z" fill="#156CF7"/>
<path d="M12.441 9.384L10.747 11.064L9.684 12.118C9.57121 12.2259 9.42111 12.2862 9.265 12.2862C9.10888 12.2862 8.95878 12.2259 8.846 12.118L8.639 11.911L7.17 10.45C7.0614 10.3392 7.00058 10.1902 7.00058 10.035C7.00058 9.87983 7.0614 9.73084 7.17 9.62C7.28206 9.51067 7.43243 9.44947 7.589 9.44947C7.74556 9.44947 7.89593 9.51067 8.008 9.62C8.07466 9.68667 8.14366 9.75534 8.215 9.826C8.566 10.174 8.915 10.526 9.266 10.871L10.93 9.221L11.992 8.168C12.1048 8.06006 12.2549 7.99981 12.411 7.99981C12.5671 7.99981 12.7172 8.06006 12.83 8.168C12.9391 8.27876 13.0003 8.42801 13.0003 8.5835C13.0003 8.73899 12.9391 8.88824 12.83 8.999L12.441 9.384Z" fill="white"/>
</svg>
