<svg width="32" height="32" viewBox="0 0 32 32" fill="none" xmlns="http://www.w3.org/2000/svg">
<path d="M24 0H8C3.58172 0 0 3.58172 0 8V24C0 28.4183 3.58172 32 8 32H24C28.4183 32 32 28.4183 32 24V8C32 3.58172 28.4183 0 24 0Z" fill="#F4DEEB"/>
<path d="M16 16.953C15.5886 16.953 15.1865 16.831 14.8444 16.6025C14.5024 16.3739 14.2358 16.0491 14.0783 15.669C13.9209 15.2889 13.8797 14.8707 13.96 14.4672C14.0402 14.0637 14.2383 13.6931 14.5292 13.4022C14.8201 13.1113 15.1907 12.9132 15.5942 12.833C15.9977 12.7527 16.4159 12.7939 16.796 12.9513C17.1761 13.1088 17.5009 13.3754 17.7295 13.7174C17.958 14.0595 18.08 14.4616 18.08 14.873C18.08 15.4247 17.8609 15.9537 17.4708 16.3438C17.0807 16.7339 16.5516 16.953 16 16.953Z" stroke="#301843" stroke-width="1.5"/>
<path d="M21.587 13.666C22.352 17.053 20.252 19.92 18.401 21.693C17.7557 22.3155 16.8941 22.6633 15.9975 22.6633C15.1009 22.6633 14.2393 22.3155 13.594 21.693C11.752 19.92 9.652 17.046 10.414 13.66C11.727 7.886 20.281 7.893 21.587 13.666Z" stroke="#301843" stroke-width="1.5"/>
</svg>
