<svg width="15" height="15" viewBox="0 0 15 15" fill="none" xmlns="http://www.w3.org/2000/svg">
<path d="M7.5 14.0001C11.0899 14.0001 14 11.0899 14 7.50006C14 3.91021 11.0899 1.00006 7.5 1.00006C3.91015 1.00006 1 3.91021 1 7.50006C1 11.0899 3.91015 14.0001 7.5 14.0001Z" stroke="#DFDFE9" stroke-width="1.6" stroke-miterlimit="10" stroke-linecap="round" stroke-linejoin="round"/>
<path d="M7.479 4.14508V11.4371" stroke="#DFDFE9" stroke-width="1.6" stroke-miterlimit="10" stroke-linecap="round" stroke-linejoin="round"/>
<path d="M9.136 5.47107H6.65C6.34235 5.47107 6.0473 5.59328 5.82976 5.81083C5.61221 6.02837 5.49 6.32342 5.49 6.63107C5.49 6.93872 5.61221 7.23377 5.82976 7.45131C6.0473 7.66886 6.34235 7.79107 6.65 7.79107H8.307C8.61465 7.79107 8.9097 7.91328 9.12724 8.13083C9.34479 8.34837 9.467 8.64342 9.467 8.95107C9.467 9.25872 9.34479 9.55377 9.12724 9.77131C8.9097 9.98886 8.61465 10.1111 8.307 10.1111H5.49" stroke="#DFDFE9" stroke-width="1.6" stroke-miterlimit="10" stroke-linecap="round" stroke-linejoin="round"/>
</svg>
