<svg width="25" height="29" viewBox="0 0 25 29" fill="none" xmlns="http://www.w3.org/2000/svg">
<path d="M12.73 0.590988C13.076 0.665938 13.4083 0.79412 13.715 0.970978C14.0674 1.19107 14.3585 1.49654 14.5615 1.85909C14.7644 2.22163 14.8726 2.62952 14.876 3.04498C14.887 3.36698 14.891 3.68999 14.876 4.01099C14.866 4.20599 14.928 4.28698 15.116 4.35298C16.3052 4.74811 17.392 5.40203 18.298 6.26765C19.2041 7.13328 19.907 8.18906 20.356 9.35898C20.7338 10.3089 20.9318 11.3207 20.94 12.343C20.958 13.327 20.909 14.311 20.985 15.295C21.1621 17.6798 21.9974 19.9687 23.398 21.907C23.7276 22.372 24.0913 22.8118 24.486 23.223C24.629 23.3411 24.7293 23.5029 24.7716 23.6835C24.8138 23.8642 24.7957 24.0536 24.72 24.223C24.6412 24.3897 24.5118 24.5273 24.3502 24.6162C24.1886 24.7051 24.003 24.7407 23.82 24.718C16.208 24.714 8.59565 24.714 0.982987 24.718C0.799962 24.7407 0.614439 24.7051 0.452836 24.6162C0.291233 24.5273 0.161771 24.3897 0.0829627 24.223C0.00833927 24.0534 -0.00905016 23.8641 0.0333411 23.6837C0.0757325 23.5033 0.175651 23.3416 0.318009 23.223C2.00607 21.4375 3.1507 19.2083 3.618 16.796C3.78617 15.9103 3.8692 15.0105 3.86598 14.109C3.81734 13.1256 3.85076 12.1398 3.96596 11.162C4.17624 9.73801 4.74563 8.391 5.62038 7.24788C6.49513 6.10475 7.64645 5.20314 8.96596 4.62798C9.21547 4.51383 9.4728 4.41759 9.73598 4.33998C9.88698 4.29298 9.92199 4.21699 9.92299 4.06699C9.89527 3.617 9.90428 3.1655 9.94997 2.71698C10.0205 2.19366 10.2589 1.70731 10.6292 1.33086C10.9995 0.954407 11.4819 0.708146 12.004 0.628983C12.0275 0.619435 12.0491 0.60591 12.068 0.588989L12.73 0.590988Z" fill="#62BF85"/>
<path d="M11.848 28.856C11.3627 28.7381 10.8909 28.5706 10.44 28.356C9.63813 27.9136 9.00105 27.2235 8.62402 26.3889H16.166C15.9706 26.8549 15.6832 27.2767 15.321 27.629C14.6776 28.295 13.82 28.7128 12.899 28.809C12.878 28.809 12.859 28.8369 12.839 28.8519H12.729C12.6864 28.8298 12.639 28.8183 12.591 28.8183C12.543 28.8183 12.4956 28.8298 12.453 28.8519H12.343C12.2907 28.8296 12.2344 28.8181 12.1775 28.8181C12.1206 28.8181 12.0643 28.8296 12.012 28.8519L11.848 28.856Z" fill="#62BF85"/>
<path d="M12.0129 28.853C12.0579 28.8112 12.1171 28.788 12.1785 28.788C12.2399 28.788 12.299 28.8112 12.3439 28.853H12.0129Z" fill="#62BF85"/>
<path d="M12.454 28.855C12.4712 28.8355 12.4924 28.8198 12.5162 28.809C12.54 28.7983 12.5659 28.7927 12.592 28.7927C12.6181 28.7927 12.6439 28.7983 12.6677 28.809C12.6915 28.8198 12.7127 28.8355 12.73 28.855H12.454Z" fill="#62BF85"/>
<path d="M0.00295451 12.078C0.0900858 8.93464 1.37549 5.94352 3.59597 3.71697C3.6695 3.63174 3.75967 3.56242 3.86093 3.51325C3.96218 3.46408 4.07239 3.4361 4.18484 3.43102C4.29729 3.42594 4.40958 3.44387 4.51486 3.48371C4.62013 3.52355 4.71617 3.58445 4.79708 3.66271C4.878 3.74096 4.9421 3.83491 4.98544 3.9388C5.02877 4.04269 5.05042 4.15432 5.0491 4.26688C5.04778 4.37943 5.02351 4.49055 4.97775 4.59339C4.93199 4.69623 4.86571 4.78865 4.78298 4.86498C3.84528 5.81351 3.08886 6.92544 2.55099 8.14597C1.9891 9.43686 1.68571 10.8254 1.65798 12.233C1.66697 12.3798 1.65585 12.5272 1.62496 12.671C1.5759 12.8655 1.45752 13.0354 1.29202 13.1487C1.12651 13.262 0.925307 13.3111 0.726221 13.2865C0.527135 13.2619 0.343834 13.1655 0.21084 13.0153C0.0778467 12.8651 0.00430997 12.6716 0.0039921 12.471C-0.0010079 12.364 0.00295451 12.254 0.00295451 12.078Z" fill="#62BF85"/>
<path d="M24.781 12.1509C24.7952 12.3063 24.7952 12.4626 24.781 12.618C24.7433 12.8218 24.6301 13.004 24.464 13.1281C24.2979 13.2521 24.091 13.3089 23.8848 13.2871C23.6787 13.2652 23.4884 13.1663 23.3519 13.0102C23.2155 12.8541 23.143 12.6522 23.1489 12.4449C23.1418 11.4245 22.9955 10.4098 22.7139 9.42894C22.2511 7.83737 21.4236 6.37567 20.2969 5.15994C20.2039 5.05994 20.105 4.95994 20.012 4.85994C19.9317 4.78228 19.8679 4.68917 19.8245 4.58621C19.7812 4.48326 19.7591 4.3726 19.7596 4.26088C19.7601 4.14917 19.7833 4.03872 19.8276 3.93617C19.8719 3.83363 19.9366 3.74113 20.0176 3.66422C20.0986 3.58731 20.1944 3.52759 20.2991 3.48866C20.4038 3.44974 20.5153 3.4324 20.6268 3.4377C20.7384 3.443 20.8478 3.47082 20.9484 3.5195C21.0489 3.56818 21.1386 3.63671 21.212 3.72095C22.0504 4.57241 22.7644 5.53792 23.333 6.58895C24.2468 8.30309 24.7429 10.2088 24.781 12.1509Z" fill="#62BF85"/>
<path d="M13.2239 3.44502C13.2069 3.58302 13.3009 3.80901 13.1859 3.91101C13.0989 3.98901 12.8769 3.91101 12.7149 3.91101C12.3857 3.89358 12.0557 3.90262 11.7279 3.93802C11.6059 3.95602 11.5669 3.92302 11.5699 3.80002C11.5769 3.55302 11.5699 3.30002 11.5699 3.05702C11.5774 2.84332 11.6675 2.64086 11.8213 2.49231C11.9751 2.34376 12.1806 2.26074 12.3944 2.26074C12.6083 2.26074 12.8138 2.34376 12.9676 2.49231C13.1214 2.64086 13.2115 2.84332 13.2189 3.05702C13.2289 3.17202 13.2239 3.28702 13.2239 3.44502Z" fill="#62BF85"/>
</svg>
