<svg width="26" height="26" viewBox="0 0 26 26" fill="none" xmlns="http://www.w3.org/2000/svg">
<path d="M13 2.60398C10.5938 2.60356 8.26182 3.43753 6.40157 4.96378C4.54131 6.49003 3.26785 8.61412 2.7982 10.9741C2.32854 13.334 2.69175 15.7838 3.82593 17.906C4.96011 20.0282 6.79507 21.6914 9.01814 22.6123C11.2412 23.5331 13.7148 23.6546 16.0174 22.9561C18.32 22.2575 20.3091 20.7821 21.6458 18.7813C22.9825 16.7805 23.5841 14.3781 23.348 11.9835C23.1119 9.58886 22.0527 7.3502 20.351 5.64898C19.3879 4.68059 18.2423 3.91284 16.9805 3.39017C15.7187 2.86749 14.3658 2.60027 13 2.60398ZM13 0.20398C15.5306 0.203782 18.0044 0.954002 20.1087 2.35977C22.2129 3.76554 23.853 5.76372 24.8216 8.10162C25.7903 10.4395 26.0438 13.0122 25.5503 15.4942C25.0568 17.9762 23.8384 20.2562 22.0491 22.0457C20.2599 23.8353 17.9801 25.054 15.4982 25.5479C13.0162 26.0418 10.4435 25.7886 8.10548 24.8204C5.76743 23.8522 3.76899 22.2123 2.3629 20.1083C0.956798 18.0043 0.206191 15.5306 0.205994 13C0.205994 9.60671 1.5539 6.3524 3.95321 3.9529C6.35252 1.5534 9.60672 0.204245 13 0.20398ZM11.4 17.797H14.6V20.997H11.4V17.797ZM11.4 5.00198H14.6V14.602H11.4V5.00198Z" fill="#62BF85"/>
</svg>
