<svg width="32" height="32" viewBox="0 0 32 32" fill="none" xmlns="http://www.w3.org/2000/svg">
<path d="M24 0H8C3.58172 0 0 3.58172 0 8V24C0 28.4183 3.58172 32 8 32H24C28.4183 32 32 28.4183 32 24V8C32 3.58172 28.4183 0 24 0Z" fill="#F4DEEB"/>
<path d="M12 14.666V13.333C12 11.126 12.667 9.333 16 9.333C19.333 9.333 20 11.126 20 13.333V14.666" stroke="#301843" stroke-width="1.5" stroke-linecap="round" stroke-linejoin="round"/>
<path d="M12.666 22.667C9.99999 22.667 9.33299 22 9.33299 19.334V18C9.33299 15.334 9.99999 14.667 12.666 14.667H19.333C22 14.667 22.666 15.334 22.666 18V19.334C22.666 22 22 22.667 19.333 22.667H12.666Z" stroke="#301843" stroke-width="1.5" stroke-linecap="round" stroke-linejoin="round"/>
<path d="M18.665 18.666H18.671" stroke="#301843" stroke-width="2" stroke-linecap="round" stroke-linejoin="round"/>
<path d="M15.997 18.666H16.003" stroke="#301843" stroke-width="2" stroke-linecap="round" stroke-linejoin="round"/>
<path d="M13.33 18.666H13.336" stroke="#301843" stroke-width="2" stroke-linecap="round" stroke-linejoin="round"/>
</svg>
