<svg width="36" height="35" viewBox="0 0 36 35" fill="none" xmlns="http://www.w3.org/2000/svg">
<path d="M18.178 19.436C20.1 19.436 21.9789 18.8661 23.577 17.7982C25.1751 16.7304 26.4207 15.2127 27.1563 13.4369C27.8918 11.6612 28.0842 9.70722 27.7093 7.82212C27.3343 5.93701 26.4088 4.20543 25.0497 2.84634C23.6906 1.48725 21.959 0.561704 20.0739 0.186733C18.1888 -0.188238 16.2348 0.00421065 14.4591 0.739743C12.6834 1.47528 11.1656 2.72086 10.0978 4.31897C9.02995 5.91709 8.46 7.79597 8.46 9.71801C8.4608 12.2951 9.48491 14.7665 11.3072 16.5888C13.1295 18.4111 15.6009 19.4352 18.178 19.436ZM26.816 21.596H23.101C21.5584 22.3074 19.8798 22.6759 18.181 22.6759C16.4822 22.6759 14.8036 22.3074 13.261 21.596H9.539C7.24806 21.596 5.05095 22.5061 3.43101 24.126C1.81107 25.746 0.901001 27.9431 0.901001 30.234L0.901001 31.314C0.901266 32.173 1.2426 32.9967 1.84997 33.604C2.45735 34.2114 3.28105 34.5527 4.14 34.553H32.215C33.074 34.5527 33.8977 34.2114 34.505 33.604C35.1124 32.9967 35.4537 32.173 35.454 31.314V30.234C35.4529 27.9438 34.5424 25.7477 32.9226 24.1286C31.3028 22.5095 29.1062 21.6 26.816 21.6V21.596Z" fill="#62BF85"/>
</svg>
