<svg width="18" height="15" viewBox="0 0 18 15" fill="none" xmlns="http://www.w3.org/2000/svg">
<path d="M12.562 13.8342V12.4252C12.5632 12.0563 12.4917 11.6908 12.3516 11.3495C12.2116 11.0083 12.0056 10.698 11.7456 10.4363C11.4856 10.1746 11.1766 9.9667 10.8363 9.82444C10.4959 9.68218 10.1309 9.60836 9.76201 9.60718H4.16201C3.79313 9.60836 3.42809 9.68218 3.08774 9.82444C2.74739 9.9667 2.43839 10.1746 2.17838 10.4363C1.91838 10.698 1.71246 11.0083 1.57239 11.3495C1.43232 11.6908 1.36083 12.0563 1.36201 12.4252V13.8342" stroke="#DFDFE9" stroke-width="1.6" stroke-miterlimit="10" stroke-linecap="round" stroke-linejoin="round"/>
<path d="M6.96199 6.78908C8.50838 6.78908 9.76199 5.52741 9.76199 3.97108C9.76199 2.41474 8.50838 1.15308 6.96199 1.15308C5.41559 1.15308 4.16199 2.41474 4.16199 3.97108C4.16199 5.52741 5.41559 6.78908 6.96199 6.78908Z" stroke="#DFDFE9" stroke-width="1.6" stroke-miterlimit="10" stroke-linecap="round" stroke-linejoin="round"/>
<path d="M16.761 13.834V12.425C16.7617 11.8023 16.556 11.197 16.176 10.7037C15.796 10.2105 15.2632 9.85713 14.661 9.69897" stroke="#DFDFE9" stroke-width="1.6" stroke-miterlimit="10" stroke-linecap="round" stroke-linejoin="round"/>
<path d="M11.861 1.24512C12.4648 1.4025 12.9993 1.75605 13.3803 2.25021C13.7613 2.74437 13.9674 3.35112 13.966 3.97512C13.9674 4.59911 13.7613 5.20587 13.3803 5.70002C12.9993 6.19418 12.4648 6.54773 11.861 6.70512" stroke="#DFDFE9" stroke-width="1.6" stroke-miterlimit="10" stroke-linecap="round" stroke-linejoin="round"/>
</svg>
