<svg width="32" height="32" viewBox="0 0 32 32" fill="none" xmlns="http://www.w3.org/2000/svg">
<path d="M24 0H8C3.58172 0 0 3.58172 0 8V24C0 28.4183 3.58172 32 8 32H24C28.4183 32 32 28.4183 32 24V8C32 3.58172 28.4183 0 24 0Z" fill="#F4DEEB"/>
<path d="M18 22.666H14C13.2939 22.6815 12.5891 22.5963 11.907 22.413C12.054 20.68 13.834 19.313 16 19.313C18.166 19.313 19.947 20.68 20.094 22.413C19.4116 22.5964 18.7065 22.6816 18 22.666Z" stroke="#301843" stroke-width="1.5" stroke-linecap="round" stroke-linejoin="round"/>
<path d="M15.999 19.313C13.833 19.313 12.052 20.679 11.906 22.413C10.093 21.9 9.33299 20.52 9.33299 18V14C9.33299 10.666 10.666 9.33299 14 9.33299H18C21.333 9.33299 22.666 10.666 22.666 14V18C22.666 20.52 21.906 21.9 20.093 22.413C19.947 20.679 18.166 19.313 15.999 19.313Z" stroke="#301843" stroke-width="1.5" stroke-linecap="round" stroke-linejoin="round"/>
<path d="M16 17.447C15.5273 17.4478 15.0649 17.3084 14.6714 17.0464C14.2779 16.7844 13.971 16.4116 13.7894 15.9751C13.6078 15.5386 13.5597 15.0581 13.6512 14.5943C13.7427 14.1305 13.9698 13.7043 14.3035 13.3695C14.6373 13.0347 15.0629 12.8065 15.5264 12.7136C15.99 12.6207 16.4706 12.6674 16.9076 12.8477C17.3446 13.028 17.7183 13.3339 17.9815 13.7266C18.2446 14.1193 18.3854 14.5813 18.386 15.054C18.3868 15.6877 18.1359 16.2958 17.6885 16.7445C17.241 17.1933 16.6337 17.4459 16 17.447Z" stroke="#301843" stroke-width="1.5" stroke-linecap="round" stroke-linejoin="round"/>
</svg>
