<svg width="40" height="40" viewBox="0 0 40 40" fill="none" xmlns="http://www.w3.org/2000/svg">
<g filter="url(#filter0_d_1_1387)">
<path d="M28 0H12C7.58172 0 4 3.58172 4 8V24C4 28.4183 7.58172 32 12 32H28C32.4183 32 36 28.4183 36 24V8C36 3.58172 32.4183 0 28 0Z" fill="#F4DEEB"/>
<path d="M19.993 9.92198C18.792 9.92317 17.6184 10.2802 16.6202 10.9481C15.6221 11.6159 14.8443 12.5646 14.3849 13.6742C13.9256 14.7839 13.8055 16.0047 14.0396 17.1826C14.2738 18.3605 14.8517 19.4426 15.7005 20.2923C16.5493 21.1419 17.6308 21.7209 18.8085 21.9562C19.9862 22.1915 21.2072 22.0725 22.3173 21.6143C23.4274 21.1561 24.3768 20.3792 25.0456 19.3817C25.7144 18.3842 26.0726 17.2109 26.075 16.01C26.0762 15.2107 25.9197 14.419 25.6146 13.6802C25.3094 12.9414 24.8616 12.2701 24.2966 11.7046C23.7317 11.1391 23.0608 10.6906 22.3223 10.3847C21.5839 10.0788 20.7923 9.92159 19.993 9.92198ZM22.681 17.467C22.6606 17.5779 22.6126 17.6819 22.5416 17.7694C22.4706 17.857 22.3788 17.9253 22.2745 17.9682C22.1702 18.0111 22.0569 18.0271 21.9448 18.0149C21.8327 18.0026 21.7255 17.9624 21.633 17.898C20.9663 17.4553 20.2997 17.0113 19.633 16.566C19.5316 16.5012 19.4491 16.4107 19.3939 16.3038C19.3388 16.1968 19.313 16.0772 19.319 15.957C19.319 15.409 19.319 14.857 19.319 14.313C19.319 13.769 19.319 13.231 19.319 12.689C19.3101 12.595 19.321 12.5002 19.3509 12.4106C19.3807 12.3211 19.429 12.2388 19.4925 12.1689C19.5561 12.0991 19.6335 12.0433 19.7199 12.0052C19.8062 11.967 19.8996 11.9473 19.994 11.9473C20.0884 11.9473 20.1818 11.967 20.2681 12.0052C20.3545 12.0433 20.4319 12.0991 20.4954 12.1689C20.559 12.2388 20.6072 12.3211 20.6371 12.4106C20.667 12.5002 20.6779 12.595 20.669 12.689C20.669 13.603 20.669 14.516 20.669 15.43C20.6619 15.494 20.6739 15.5587 20.7037 15.6159C20.7334 15.673 20.7795 15.7201 20.836 15.751C21.356 16.084 21.867 16.43 22.379 16.776C22.4947 16.8457 22.5859 16.9496 22.64 17.0734C22.6941 17.1972 22.7084 17.3347 22.681 17.467Z" fill="#301843"/>
<path d="M15.54 9.247C15.72 9.247 15.84 9.247 15.958 9.247C16.1356 9.25041 16.3048 9.32352 16.429 9.45055C16.5532 9.57757 16.6226 9.74834 16.622 9.92601C16.622 10.1005 16.5537 10.2681 16.4316 10.3928C16.3095 10.5175 16.1435 10.5893 15.969 10.593C15.2797 10.6017 14.5903 10.6017 13.901 10.593C13.8143 10.5926 13.7286 10.5751 13.6488 10.5414C13.5689 10.5077 13.4966 10.4585 13.4359 10.3966C13.3752 10.3348 13.3273 10.2615 13.295 10.1811C13.2628 10.1007 13.2468 10.0146 13.248 9.928C13.2413 9.246 13.2413 8.56401 13.248 7.88201C13.2486 7.79386 13.2668 7.70672 13.3014 7.62564C13.3359 7.54456 13.3862 7.47116 13.4494 7.40967C13.5126 7.34818 13.5873 7.29984 13.6693 7.26746C13.7513 7.23507 13.8389 7.21929 13.927 7.22101C14.1011 7.22349 14.2675 7.29293 14.3917 7.4149C14.5159 7.53688 14.5884 7.70201 14.594 7.87601C14.594 7.98601 14.594 8.097 14.594 8.237C15.0013 7.96466 15.4255 7.7185 15.864 7.5C17.7097 6.6005 19.7979 6.32538 21.8136 6.71613C23.8293 7.10687 25.6634 8.14229 27.0394 9.66631C28.4153 11.1903 29.2586 13.1203 29.442 15.1654C29.6254 17.2104 29.139 19.2597 28.0562 21.0042C26.9734 22.7488 25.3528 24.094 23.4387 24.8371C21.5247 25.5803 19.4209 25.6811 17.4446 25.1244C15.4682 24.5677 13.7264 23.3836 12.4817 21.7506C11.2371 20.1176 10.557 18.1242 10.544 16.071C10.5349 15.978 10.545 15.8842 10.5737 15.7953C10.6024 15.7064 10.649 15.6244 10.7107 15.5542C10.7724 15.4841 10.8478 15.4274 10.9323 15.3876C11.0169 15.3478 11.1086 15.3259 11.202 15.323C11.297 15.3222 11.3912 15.3411 11.4786 15.3784C11.566 15.4158 11.6448 15.4708 11.7099 15.54C11.7751 15.6092 11.8253 15.6911 11.8573 15.7806C11.8893 15.8701 11.9025 15.9652 11.896 16.06C11.8858 17.5504 12.2961 19.0135 13.0797 20.2814C13.8633 21.5493 14.9884 22.5705 16.326 23.228C17.3449 23.7459 18.4617 24.0425 19.6033 24.0984C20.7449 24.1542 21.8854 23.9681 22.9499 23.5521C24.0145 23.1362 24.9791 22.4998 25.7804 21.6848C26.5817 20.8698 27.2016 19.8946 27.5995 18.8231C27.9973 17.7517 28.1642 16.6082 28.089 15.4677C28.0138 14.3273 27.6983 13.2156 27.1632 12.2056C26.6281 11.1957 25.8855 10.3103 24.9841 9.60753C24.0828 8.90479 23.0429 8.40059 21.933 8.12801C20.8706 7.85739 19.7637 7.80972 18.682 7.98802C17.6003 8.16633 16.5673 8.56675 15.648 9.16402C15.628 9.18302 15.608 9.195 15.54 9.247Z" fill="#301843"/>
</g>
<defs>
<filter id="filter0_d_1_1387" x="0" y="0" width="40" height="40" filterUnits="userSpaceOnUse" color-interpolation-filters="sRGB">
<feFlood flood-opacity="0" result="BackgroundImageFix"/>
<feColorMatrix in="SourceAlpha" type="matrix" values="0 0 0 0 0 0 0 0 0 0 0 0 0 0 0 0 0 0 127 0" result="hardAlpha"/>
<feOffset dy="4"/>
<feGaussianBlur stdDeviation="2"/>
<feComposite in2="hardAlpha" operator="out"/>
<feColorMatrix type="matrix" values="0 0 0 0 0 0 0 0 0 0 0 0 0 0 0 0 0 0 0.25 0"/>
<feBlend mode="normal" in2="BackgroundImageFix" result="effect1_dropShadow_1_1387"/>
<feBlend mode="normal" in="SourceGraphic" in2="effect1_dropShadow_1_1387" result="shape"/>
</filter>
</defs>
</svg>
