<svg width="20" height="20" viewBox="0 0 20 20" fill="none" xmlns="http://www.w3.org/2000/svg">
<path d="M15 0H5C2.23858 0 0 2.23858 0 5V15C0 17.7614 2.23858 20 5 20H15C17.7614 20 20 17.7614 20 15V5C20 2.23858 17.7614 0 15 0Z" fill="#156CF7"/>
<path d="M13.774 8.979L11.353 11.33C10.8457 11.822 10.3397 12.314 9.835 12.806C9.67221 12.9581 9.45776 13.0426 9.235 13.0426C9.01224 13.0426 8.79779 12.9581 8.635 12.806L8.335 12.516C7.639 11.834 6.94134 11.1523 6.242 10.471C6.16527 10.3949 6.10435 10.3044 6.06279 10.2047C6.02122 10.105 5.99982 9.99804 5.99982 9.89C5.99982 9.78196 6.02122 9.67499 6.06279 9.57527C6.10435 9.47555 6.16527 9.38505 6.242 9.309C6.40423 9.15584 6.61889 9.07051 6.842 9.07051C7.06511 9.07051 7.27977 9.15584 7.442 9.309C7.542 9.405 7.642 9.50133 7.742 9.598C8.242 10.085 8.742 10.574 9.242 11.061L11.614 8.751L13.132 7.276C13.2948 7.12395 13.5092 7.03937 13.732 7.03937C13.9548 7.03937 14.1692 7.12395 14.332 7.276C14.4092 7.35202 14.4704 7.44262 14.5123 7.54253C14.5541 7.64245 14.5756 7.74968 14.5756 7.858C14.5756 7.96632 14.5541 8.07355 14.5123 8.17347C14.4704 8.27338 14.4092 8.36398 14.332 8.44L13.778 8.979H13.774Z" fill="white"/>
</svg>
