<svg width="21" height="17" viewBox="0 0 21 17" fill="none" xmlns="http://www.w3.org/2000/svg">
<path d="M19.637 1.59202V6.42302H14.696" stroke="#DFDFE9" stroke-width="1.6" stroke-miterlimit="10" stroke-linecap="round" stroke-linejoin="round"/>
<path d="M1.521 14.475V9.64401H6.462" stroke="#DFDFE9" stroke-width="1.6" stroke-miterlimit="10" stroke-linecap="round" stroke-linejoin="round"/>
<path d="M10.505 15.9991C8.45505 16.0104 6.48167 15.2211 5.00499 13.7991L0.998993 10.1661L17.832 10.9991C17.3867 12.2001 16.6418 13.2672 15.668 14.0991C14.6772 14.9447 13.4927 15.5321 12.22 15.8091C11.6568 15.9337 11.0818 15.9974 10.505 15.9991ZM19.999 6.83214L3.16599 5.99914C3.61141 4.7983 4.35631 3.73121 5.32999 2.89914C6.32055 2.05166 7.50544 1.46248 8.77899 1.18414C9.34207 1.06136 9.91669 0.999334 10.493 0.999137C12.543 0.987762 14.5164 1.77713 15.993 3.19914L19.999 6.83014V6.83214Z" stroke="#DFDFE9" stroke-width="1.6" stroke-miterlimit="10" stroke-linecap="round" stroke-linejoin="round"/>
</svg>
