<svg width="18" height="19" viewBox="0 0 18 19" fill="none" xmlns="http://www.w3.org/2000/svg">
<path d="M13.903 6.37C15.2367 6.37 16.318 5.27489 16.318 3.924C16.318 2.57311 15.2367 1.478 13.903 1.478C12.5692 1.478 11.488 2.57311 11.488 3.924C11.488 5.27489 12.5692 6.37 13.903 6.37Z" stroke="#34353B" stroke-width="1.8" stroke-miterlimit="10" stroke-linecap="round" stroke-linejoin="round"/>
<path d="M4.24099 12.077C5.57476 12.077 6.65599 10.9819 6.65599 9.631C6.65599 8.28011 5.57476 7.185 4.24099 7.185C2.90722 7.185 1.82599 8.28011 1.82599 9.631C1.82599 10.9819 2.90722 12.077 4.24099 12.077Z" stroke="#34353B" stroke-width="1.8" stroke-miterlimit="10" stroke-linecap="round" stroke-linejoin="round"/>
<path d="M13.903 17.783C15.2367 17.783 16.318 16.6879 16.318 15.337C16.318 13.9861 15.2367 12.891 13.903 12.891C12.5692 12.891 11.488 13.9861 11.488 15.337C11.488 16.6879 12.5692 17.783 13.903 17.783Z" stroke="#34353B" stroke-width="1.8" stroke-miterlimit="10" stroke-linecap="round" stroke-linejoin="round"/>
<path d="M6.32697 10.861L11.827 14.106" stroke="#34353B" stroke-width="1.8" stroke-miterlimit="10" stroke-linecap="round" stroke-linejoin="round"/>
<path d="M11.818 5.155L6.32697 8.4" stroke="#34353B" stroke-width="1.8" stroke-miterlimit="10" stroke-linecap="round" stroke-linejoin="round"/>
</svg>
