<svg width="32" height="32" viewBox="0 0 32 32" fill="none" xmlns="http://www.w3.org/2000/svg">
<path d="M24 0H8C3.58172 0 0 3.58172 0 8V24C0 28.4183 3.58172 32 8 32H24C28.4183 32 32 28.4183 32 24V8C32 3.58172 28.4183 0 24 0Z" fill="#F4DEEB"/>
<path d="M23.9463 16.8776C23.7893 16.8466 23.7363 16.7986 23.7363 16.6276C23.743 13.6536 23.7447 10.6793 23.7413 7.70468C23.7598 7.47735 23.7287 7.2487 23.6503 7.03454C23.5718 6.82038 23.4478 6.6258 23.2869 6.4642C23.126 6.30259 22.9319 6.17781 22.7181 6.09847C22.5042 6.01914 22.2757 5.98714 22.0483 6.00466C17.9296 6.00466 13.8113 6.00466 9.69333 6.00466C9.54592 6.00037 9.39845 6.01142 9.25333 6.03765C8.8853 6.11225 8.55638 6.31678 8.32669 6.61386C8.097 6.91093 7.98187 7.28071 8.00232 7.65566C8.00232 10.3137 8.00232 12.972 8.00232 15.6307C8.00232 18.2753 8.00232 20.92 8.00232 23.5647C7.99569 23.7256 8.0054 23.8867 8.03131 24.0456C8.11688 24.4174 8.33026 24.7472 8.63419 24.9777C8.93812 25.2081 9.31333 25.3246 9.69434 25.3067C13.9673 25.2927 18.2403 25.3007 22.5133 25.3007C22.5973 25.3007 22.6823 25.3007 22.7663 25.3007C23.1667 25.3224 23.5682 25.2887 23.9593 25.2006C24.9154 24.9978 25.7726 24.4724 26.3872 23.7125C27.0019 22.9527 27.3366 22.0046 27.3351 21.0273C27.3337 20.05 26.9963 19.1029 26.3795 18.3448C25.7627 17.5867 24.904 17.0638 23.9473 16.8637L23.9463 16.8776ZM11.2933 9.85967C11.3657 9.76896 11.4593 9.69743 11.5659 9.65139C11.6724 9.60536 11.7886 9.58622 11.9043 9.59567C14.0037 9.599 16.1037 9.599 18.2043 9.59567C18.7593 9.59567 19.3133 9.59567 19.8683 9.59567C19.9611 9.58851 20.0543 9.60061 20.1421 9.63119C20.23 9.66177 20.3106 9.71015 20.3788 9.77334C20.4471 9.83653 20.5015 9.91317 20.5388 9.99841C20.576 10.0836 20.5952 10.1757 20.5952 10.2687C20.5952 10.3617 20.576 10.4537 20.5388 10.5389C20.5015 10.6242 20.4471 10.7008 20.3788 10.764C20.3106 10.8272 20.23 10.8756 20.1421 10.9062C20.0543 10.9367 19.9611 10.9488 19.8683 10.9417H11.8533C11.7192 10.9491 11.586 10.9154 11.4715 10.8452C11.357 10.775 11.2666 10.6715 11.2123 10.5487C11.1568 10.4385 11.1348 10.3145 11.1492 10.192C11.1636 10.0695 11.2138 9.95393 11.2933 9.85967ZM16.7093 21.7187C15.1007 21.7187 13.4923 21.7187 11.8843 21.7187C11.7912 21.7272 11.6973 21.7162 11.6086 21.6865C11.5199 21.6569 11.4384 21.6091 11.3691 21.5462C11.2999 21.4833 11.2445 21.4067 11.2064 21.3213C11.1683 21.2359 11.1484 21.1435 11.1479 21.05C11.1474 20.9565 11.1664 20.8639 11.2036 20.778C11.2407 20.6922 11.2954 20.6151 11.364 20.5515C11.4325 20.4879 11.5136 20.4393 11.602 20.4087C11.6903 20.378 11.7841 20.3661 11.8773 20.3737C12.692 20.3737 13.5067 20.3737 14.3213 20.3737C15.1147 20.3737 15.908 20.3737 16.7013 20.3737C16.795 20.3643 16.8896 20.3745 16.979 20.4038C17.0685 20.4331 17.1508 20.4807 17.2208 20.5436C17.2908 20.6066 17.3469 20.6834 17.3855 20.7693C17.424 20.8552 17.4442 20.9481 17.4448 21.0423C17.4454 21.1364 17.4262 21.2296 17.3887 21.3159C17.3512 21.4022 17.296 21.4797 17.2268 21.5435C17.1575 21.6073 17.0757 21.6559 16.9866 21.6862C16.8975 21.7165 16.8031 21.7279 16.7093 21.7197V21.7187ZM18.0093 18.0347C17.8931 18.1023 17.7607 18.1368 17.6263 18.1347C15.7083 18.1347 13.7903 18.1347 11.8723 18.1347C11.702 18.146 11.5337 18.0927 11.4009 17.9853C11.2682 17.878 11.1809 17.7246 11.1563 17.5557C11.1336 17.4017 11.1652 17.2447 11.2457 17.1114C11.3261 16.9782 11.4505 16.8772 11.5973 16.8256C11.7049 16.7936 11.8174 16.7814 11.9293 16.7897H14.7533C15.7233 16.7897 16.6923 16.7897 17.6623 16.7897C17.8146 16.7856 17.9637 16.834 18.0844 16.9269C18.2052 17.0198 18.2902 17.1514 18.3253 17.2997C18.3578 17.4399 18.3444 17.5869 18.2872 17.719C18.23 17.8512 18.1319 17.9614 18.0073 18.0337L18.0093 18.0347ZM19.7613 14.5347H15.8613C14.5333 14.5347 13.205 14.5347 11.8763 14.5347C11.7695 14.5437 11.662 14.5268 11.5631 14.4855C11.4642 14.4442 11.3767 14.3797 11.308 14.2973C11.2393 14.215 11.1915 14.1173 11.1686 14.0126C11.1456 13.9079 11.1483 13.7992 11.1763 13.6957C11.2027 13.5784 11.2621 13.4712 11.3475 13.3867C11.433 13.3021 11.5408 13.2438 11.6583 13.2187C11.7471 13.198 11.8381 13.1883 11.9293 13.1897H19.8143C19.9338 13.1848 20.0531 13.2021 20.1663 13.2407C20.311 13.2981 20.4315 13.4037 20.5074 13.5395C20.5834 13.6754 20.6102 13.8333 20.5833 13.9867C20.5575 14.1328 20.4835 14.266 20.3731 14.3652C20.2628 14.4643 20.1224 14.5236 19.9743 14.5337C19.9003 14.5327 19.8303 14.5317 19.7603 14.5317L19.7613 14.5347ZM23.0673 23.9547C22.4928 23.9523 21.9319 23.7797 21.4554 23.4588C20.9788 23.1378 20.6081 22.6829 20.39 22.1514C20.1719 21.6199 20.1161 21.0356 20.2298 20.4725C20.3435 19.9093 20.6215 19.3925 21.0287 18.9872C21.4359 18.5819 21.9541 18.3064 22.5178 18.1954C23.0815 18.0845 23.6655 18.143 24.1959 18.3637C24.7264 18.5844 25.1795 18.9573 25.4982 19.4353C25.8169 19.9134 25.9867 20.4752 25.9863 21.0497C25.9866 21.4324 25.9111 21.8113 25.7643 22.1647C25.6174 22.5181 25.402 22.8389 25.1306 23.1087C24.8591 23.3784 24.537 23.5918 24.1827 23.7365C23.8284 23.8812 23.449 23.9543 23.0663 23.9517L23.0673 23.9547ZM23.8993 19.7157C23.5993 20.0157 23.2993 20.3107 23.0053 20.6067C22.8813 20.7297 22.7603 20.9407 22.6263 20.9487C22.4723 20.9587 22.3653 20.7267 22.2263 20.6077C22.2153 20.5987 22.2063 20.5877 22.1963 20.5787C22.1341 20.5142 22.0595 20.4628 21.9771 20.4275C21.8947 20.3923 21.806 20.3739 21.7164 20.3734C21.6267 20.373 21.5379 20.3904 21.4551 20.4248C21.3723 20.4592 21.2973 20.5098 21.2343 20.5737C21.1705 20.6367 21.1202 20.7121 21.0863 20.7951C21.0524 20.8781 21.0356 20.9672 21.037 21.0568C21.0384 21.1465 21.058 21.235 21.0945 21.3169C21.1309 21.3989 21.1836 21.4726 21.2493 21.5337C21.5383 21.8337 21.8333 22.1197 22.1263 22.4117C22.1894 22.478 22.2659 22.5302 22.3508 22.5647C22.4356 22.5991 22.5268 22.6152 22.6183 22.6117C22.7164 22.6117 22.8134 22.5907 22.9027 22.5502C22.9921 22.5097 23.0717 22.4505 23.1363 22.3767C23.7063 21.8067 24.2793 21.2387 24.8483 20.6667C24.9196 20.6065 24.9776 20.5322 25.0186 20.4485C25.0596 20.3647 25.0828 20.2733 25.0867 20.1802C25.0905 20.087 25.075 19.994 25.041 19.9072C25.007 19.8203 24.9554 19.7415 24.8893 19.6757C24.8231 19.6106 24.7443 19.5597 24.6577 19.5262C24.5711 19.4926 24.4786 19.4771 24.3858 19.4806C24.2931 19.484 24.202 19.5064 24.1181 19.5463C24.0343 19.5862 23.9595 19.6428 23.8983 19.7127L23.8993 19.7157Z" fill="#301843"/>
</svg>
