<svg width="33" height="32" viewBox="0 0 33 32" fill="none" xmlns="http://www.w3.org/2000/svg">
<path d="M30.6339 15.712C27.2859 15.712 23.9379 15.712 20.5899 15.712C20.3249 15.6882 20.0578 15.7228 19.8075 15.8133C19.5573 15.9039 19.3299 16.0482 19.1414 16.2361C18.953 16.424 18.808 16.6509 18.7167 16.9009C18.6254 17.1509 18.5899 17.4178 18.6129 17.683C18.6129 18.883 18.6129 20.0853 18.6129 21.29C18.5879 21.555 18.6213 21.8223 18.7107 22.073C18.8002 22.3237 18.9436 22.5517 19.1308 22.741C19.318 22.9303 19.5444 23.0762 19.7941 23.1684C20.0438 23.2607 20.3107 23.2971 20.5759 23.275C24.0173 23.279 27.4586 23.279 30.9 23.275C31.1903 23.2834 31.4795 23.2344 31.7509 23.131C32.0232 23.0089 32.2643 22.8269 32.4562 22.5985C32.6481 22.3701 32.7857 22.1012 32.8589 21.812V17.212C32.7593 16.7199 32.4701 16.2867 32.0538 16.0061C31.6375 15.7254 31.1275 15.6198 30.6339 15.712ZM24.141 19.831C24.1501 20.0299 24.0893 20.2257 23.9691 20.3845C23.8489 20.5432 23.6769 20.6549 23.4829 20.7C23.1309 20.79 22.7619 20.79 22.4099 20.7C21.9309 20.574 21.7629 20.252 21.7629 19.482C21.7139 19.2668 21.7463 19.0411 21.854 18.8484C21.9617 18.6558 22.1369 18.5099 22.3459 18.439C22.7409 18.3007 23.171 18.3007 23.5659 18.439C24.2319 18.688 24.153 19.287 24.141 19.834V19.831Z" fill="#301843"/>
<path d="M15.998 31.318H3.058C2.78032 31.3532 2.49825 31.3246 2.2333 31.2344C1.96834 31.1441 1.72746 30.9946 1.52901 30.7972C1.33056 30.5998 1.17977 30.3597 1.08809 30.0953C0.99642 29.8308 0.966247 29.5489 0.999959 29.271C0.999959 22.791 0.999959 16.3113 0.999959 9.83201C0.96862 9.55954 0.999047 9.28351 1.08895 9.0244C1.17885 8.76528 1.32595 8.52973 1.51931 8.33522C1.71267 8.14071 1.94731 7.99224 2.20589 7.9008C2.46447 7.80936 2.74031 7.7773 3.01296 7.80702H29.048C29.4756 7.76476 29.904 7.87841 30.2544 8.12703C30.6048 8.37565 30.8536 8.74249 30.955 9.16002C30.9993 9.36189 31.0187 9.56841 31.013 9.77501C31.013 11.247 31.013 12.719 31.022 14.192C31.022 14.428 30.962 14.479 30.732 14.478C27.332 14.47 23.932 14.47 20.532 14.478C19.932 14.4507 19.3375 14.6041 18.8256 14.9184C18.3138 15.2328 17.908 15.6935 17.661 16.241C17.4538 16.6832 17.3535 17.1679 17.368 17.656C17.368 18.9 17.368 20.144 17.368 21.388C17.3555 21.8062 17.4288 22.2226 17.5835 22.6113C17.7381 23.0001 17.9709 23.353 18.2673 23.6483C18.5637 23.9436 18.9175 24.175 19.3068 24.3282C19.6962 24.4814 20.1128 24.5531 20.531 24.539C23.4136 24.5437 26.296 24.5437 29.178 24.539C29.717 24.539 30.256 24.539 30.796 24.539C30.934 24.539 31.024 24.539 31.023 24.728C31.015 26.328 31.038 27.921 31.009 29.518C31.0142 29.7656 30.9673 30.0116 30.8714 30.2399C30.7755 30.4683 30.6327 30.674 30.4523 30.8437C30.2719 31.0134 30.0578 31.1432 29.824 31.225C29.5902 31.3067 29.3418 31.3384 29.095 31.318C27.654 31.324 26.213 31.318 24.772 31.318H15.998Z" fill="#301843"/>
<path d="M27.3699 6.551H12.6899C12.7692 6.48979 12.8628 6.44986 12.9619 6.435C16.8012 5.38633 20.6406 4.33733 24.4799 3.288C24.7229 3.20078 24.9819 3.16716 25.2391 3.18942C25.4963 3.21169 25.7455 3.2893 25.9699 3.41696C26.1943 3.54463 26.3884 3.71933 26.5389 3.92905C26.6894 4.13877 26.7928 4.37857 26.8419 4.63199C27.0209 5.25699 27.1879 5.885 27.3699 6.551Z" fill="#301843"/>
<path d="M6.82202 6.50501C6.91002 6.45901 6.99804 6.411 7.08704 6.366C10.6984 4.57534 14.3097 2.78467 17.921 0.994008C18.2777 0.774129 18.7006 0.687365 19.1151 0.749028C19.5295 0.810691 19.9088 1.01682 20.186 1.33101C20.5539 1.84335 20.8562 2.39965 21.086 2.987C21.169 3.146 20.986 3.12401 20.901 3.14701C19.1677 3.62434 17.4327 4.09967 15.696 4.573C13.382 5.205 11.066 5.83101 8.75403 6.47301C8.11411 6.56702 7.4647 6.57777 6.82202 6.50501Z" fill="#301843"/>
</svg>
