<svg width="29" height="28" viewBox="0 0 29 28" fill="none" xmlns="http://www.w3.org/2000/svg">
<path d="M14.981 6.02282e-05C12.2105 0.00304852 9.50306 0.828014 7.20162 2.37051C4.90017 3.91301 3.10813 6.10368 2.05238 8.66519C0.996635 11.2267 0.724665 14.0439 1.27086 16.7601C1.81706 19.4762 3.15688 21.9693 5.12071 23.9236C7.08455 25.8779 9.58407 27.2056 12.3029 27.7386C15.0217 28.2715 17.8375 27.9858 20.3938 26.9176C22.9502 25.8495 25.1321 24.0468 26.6634 21.7379C28.1947 19.4289 29.0065 16.7176 28.996 13.9471C28.9924 12.1108 28.627 10.2932 27.9206 8.59825C27.2142 6.90329 26.1807 5.36417 24.8791 4.06889C23.5775 2.77361 22.0334 1.74756 20.335 1.04941C18.6366 0.35125 16.8173 -0.00533086 14.981 6.02282e-05ZM17.761 19.8931C17.704 20.0857 17.5848 20.254 17.4219 20.3716C17.259 20.4892 17.0618 20.5495 16.861 20.543C16.7393 20.5443 16.6186 20.5206 16.5064 20.4733C16.3943 20.426 16.293 20.3561 16.209 20.2681C14.3423 18.4014 12.4736 16.5311 10.603 14.6571C10.5118 14.5715 10.4395 14.4678 10.3906 14.3527C10.3416 14.2376 10.3173 14.1136 10.319 13.9886C10.3207 13.8635 10.3484 13.7402 10.4004 13.6265C10.4524 13.5128 10.5275 13.4111 10.621 13.3281C12.4657 11.4754 14.314 9.6264 16.166 7.78107C16.252 7.68892 16.3559 7.61519 16.4712 7.56433C16.5866 7.51347 16.711 7.48654 16.8371 7.48517C16.9631 7.4838 17.0881 7.50801 17.2046 7.55635C17.321 7.60469 17.4264 7.67615 17.5145 7.7664C17.6025 7.85665 17.6713 7.96382 17.7167 8.08142C17.7621 8.19902 17.7831 8.32461 17.7786 8.45059C17.7741 8.57657 17.744 8.70034 17.6903 8.81438C17.6366 8.92841 17.5603 9.03036 17.466 9.11406C16.0047 10.5807 14.542 12.0454 13.078 13.5081C12.916 13.6701 12.627 13.8081 12.642 14.0141C12.655 14.1861 12.92 14.3391 13.078 14.4971C14.5347 15.9544 15.9923 17.4107 17.451 18.8661C17.5981 18.9875 17.706 19.1496 17.7612 19.3322C17.8163 19.5147 17.8163 19.7105 17.761 19.8931Z" fill="white"/>
</svg>
